<svg id="Layer_1" data-name="Layer 1" xmlns="http://www.w3.org/2000/svg" viewBox="0 0 172 24"><defs><style>.cls-1{fill:#c6c6c6;}.cls-2{fill:#fff;}.cls-3{fill:#49aa26;}</style></defs><path class="cls-1" d="M0,13.66A8.7,8.7,0,0,1,.91,9.6,6.92,6.92,0,0,1,3.44,6.86,6.73,6.73,0,0,1,7,5.86a6.47,6.47,0,0,1,2.85.67,5.72,5.72,0,0,1,2.26,1.71V.89h3.09V21.35H12.13V19.06A5.79,5.79,0,0,1,10,20.88a6.24,6.24,0,0,1-3,.72,6.59,6.59,0,0,1-3.55-1A7.29,7.29,0,0,1,.91,17.78,9,9,0,0,1,0,13.66Zm12.13.06A5.45,5.45,0,0,0,11.48,11,4.39,4.39,0,0,0,9.84,9.21a4.29,4.29,0,0,0-4.41,0A4.43,4.43,0,0,0,3.77,11a5.51,5.51,0,0,0-.62,2.71,5.83,5.83,0,0,0,.62,2.77,4.74,4.74,0,0,0,1.66,1.82,4.31,4.31,0,0,0,2.21.61,4.17,4.17,0,0,0,2.2-.61,4.27,4.27,0,0,0,1.64-1.77A5.58,5.58,0,0,0,12.13,13.72Z"/><path class="cls-1" d="M32.83,13.36a10.44,10.44,0,0,1-.1,1.55H21.4a4.29,4.29,0,0,0,1.32,2.93,4.09,4.09,0,0,0,2.91,1.1,3.56,3.56,0,0,0,3.49-2.12h3.31A6.85,6.85,0,0,1,30,20.27a7,7,0,0,1-4.35,1.33,7.51,7.51,0,0,1-3.82-1,7.09,7.09,0,0,1-2.64-2.76,8.82,8.82,0,0,1-.94-4.15,8.84,8.84,0,0,1,.91-4.12,6.78,6.78,0,0,1,2.61-2.77,7.73,7.73,0,0,1,3.88-1,7.43,7.43,0,0,1,3.73.94,6.56,6.56,0,0,1,2.56,2.66A8,8,0,0,1,32.83,13.36Zm-3.2-1a3.6,3.6,0,0,0-1.21-2.79,4.25,4.25,0,0,0-2.93-1.05,3.87,3.87,0,0,0-2.72,1.05,4.3,4.3,0,0,0-1.34,2.79Z"/><path class="cls-1" d="M41.58,18.53l4.2-12.42H49L43.38,21.35H39.72L34.1,6.11h3.28Z"/><path class="cls-2" d="M52.59,21.54a1.85,1.85,0,0,1-1.4-.58,2.09,2.09,0,0,1,0-2.87,1.94,1.94,0,0,1,2.77,0A2.12,2.12,0,0,1,54,21,1.84,1.84,0,0,1,52.59,21.54Z"/><path class="cls-1" d="M64.05,8.68H61.31V21.35h-3.1V8.68H56.46V6.11h1.75V5a4.82,4.82,0,0,1,1.35-3.81A6.31,6.31,0,0,1,63.83,0V2.63a2.77,2.77,0,0,0-2,.55A2.45,2.45,0,0,0,61.31,5V6.11h2.74Z"/><path class="cls-1" d="M68.33,4.09a1.86,1.86,0,0,1-1.4-.58,2,2,0,0,1-.57-1.44A1.94,1.94,0,0,1,66.93.64a1.86,1.86,0,0,1,1.4-.58A1.83,1.83,0,0,1,69.7.64a1.94,1.94,0,0,1,.56,1.43,1.94,1.94,0,0,1-.56,1.44A1.83,1.83,0,0,1,68.33,4.09Zm1.5,2V21.35H66.77V6.11Z"/><path class="cls-1" d="M81.34,5.86a6.43,6.43,0,0,1,3.12.75,5.28,5.28,0,0,1,2.18,2.21,7.46,7.46,0,0,1,.78,3.54v9h-3V12.83a4.46,4.46,0,0,0-1-3.12A3.46,3.46,0,0,0,80.66,8.6a3.55,3.55,0,0,0-2.74,1.11,4.46,4.46,0,0,0-1,3.12v8.52H73.86V6.11h3.07V7.85a5.08,5.08,0,0,1,1.91-1.46A6.06,6.06,0,0,1,81.34,5.86Z"/><path class="cls-1" d="M90.3,13.66a8.71,8.71,0,0,1,.92-4.06,6.92,6.92,0,0,1,2.53-2.74,6.65,6.65,0,0,1,3.55-1,6.16,6.16,0,0,1,3,.72,5.92,5.92,0,0,1,2.09,1.74V6.11h3.1V21.35h-3.1V19.08a6,6,0,0,1-2.12,1.8,6.73,6.73,0,0,1-6.56-.28,7.29,7.29,0,0,1-2.53-2.82A9,9,0,0,1,90.3,13.66Zm12.13.06a5.55,5.55,0,0,0-.64-2.74,4.46,4.46,0,0,0-1.64-1.77,4.29,4.29,0,0,0-4.41,0A4.45,4.45,0,0,0,94.07,11a5.62,5.62,0,0,0-.62,2.71,6,6,0,0,0,.62,2.77,4.76,4.76,0,0,0,1.67,1.82,4.28,4.28,0,0,0,2.2.61,4.21,4.21,0,0,0,2.21-.61,4.34,4.34,0,0,0,1.64-1.77A5.68,5.68,0,0,0,102.43,13.72Z"/><path class="cls-1" d="M117,5.86a6.37,6.37,0,0,1,3.12.75,5.28,5.28,0,0,1,2.18,2.21,7.46,7.46,0,0,1,.78,3.54v9h-3V12.83a4.46,4.46,0,0,0-1-3.12,3.48,3.48,0,0,0-2.72-1.11,3.54,3.54,0,0,0-2.74,1.11,4.42,4.42,0,0,0-1,3.12v8.52h-3.06V6.11h3.06V7.85a5.16,5.16,0,0,1,1.91-1.46A6.1,6.1,0,0,1,117,5.86Z"/><path class="cls-1" d="M126,13.72a8.84,8.84,0,0,1,.92-4.12,6.71,6.71,0,0,1,2.58-2.77,7.31,7.31,0,0,1,3.76-1,7.15,7.15,0,0,1,4.44,1.33,6.46,6.46,0,0,1,2.4,3.73h-3.31a3.61,3.61,0,0,0-1.3-1.77,3.74,3.74,0,0,0-2.23-.63,3.69,3.69,0,0,0-3,1.38,5.87,5.87,0,0,0-1.1,3.82,6,6,0,0,0,1.1,3.84,3.69,3.69,0,0,0,3,1.38,3.41,3.41,0,0,0,3.53-2.4h3.31a6.89,6.89,0,0,1-2.43,3.7,7,7,0,0,1-4.41,1.36,7.21,7.21,0,0,1-3.76-1,6.87,6.87,0,0,1-2.58-2.76A9.06,9.06,0,0,1,126,13.72Z"/><path class="cls-1" d="M156.73,13.36a10.44,10.44,0,0,1-.1,1.55H145.3a4.29,4.29,0,0,0,1.32,2.93,4.08,4.08,0,0,0,2.9,1.1,3.56,3.56,0,0,0,3.5-2.12h3.31a6.85,6.85,0,0,1-2.45,3.45,7,7,0,0,1-4.36,1.33,7.5,7.5,0,0,1-3.81-1,7,7,0,0,1-2.64-2.76,8.82,8.82,0,0,1-.94-4.15A8.84,8.84,0,0,1,143,9.6a6.78,6.78,0,0,1,2.61-2.77,7.72,7.72,0,0,1,3.87-1,7.44,7.44,0,0,1,3.74.94,6.56,6.56,0,0,1,2.56,2.66A8,8,0,0,1,156.73,13.36Zm-3.2-1a3.63,3.63,0,0,0-1.21-2.79,4.25,4.25,0,0,0-2.93-1.05,3.87,3.87,0,0,0-2.72,1.05,4.3,4.3,0,0,0-1.34,2.79Z"/><path class="cls-3" d="M52.59,21.54a1.85,1.85,0,0,1-1.4-.58,2.09,2.09,0,0,1,0-2.87,1.94,1.94,0,0,1,2.77,0A2.12,2.12,0,0,1,54,21,1.84,1.84,0,0,1,52.59,21.54Z"/><path class="cls-3" d="M172,17.33a4,4,0,0,1-.68,2.2,5.11,5.11,0,0,1-1.95,1.73,7.46,7.46,0,0,1-3,.84V24h-1.77V22.1a7.92,7.92,0,0,1-4.13-1.38,3.66,3.66,0,0,1-1.57-3.09h3.31a2.41,2.41,0,0,0,.68,1.52,3,3,0,0,0,1.71.75V14.75a26.41,26.41,0,0,1-3-.8,4.91,4.91,0,0,1-1.95-1.31,3.51,3.51,0,0,1-.79-2.44A3.93,3.93,0,0,1,160.43,7a7.33,7.33,0,0,1,4.13-1.5V3.6h1.77V5.5a6.91,6.91,0,0,1,3.82,1.31,4.13,4.13,0,0,1,1.66,3H168.5a2.11,2.11,0,0,0-.65-1.28,3,3,0,0,0-1.52-.8v5.06a21.76,21.76,0,0,1,3,.79,4.6,4.6,0,0,1,1.92,1.29A3.44,3.44,0,0,1,172,17.33Zm-10-7.27a1.85,1.85,0,0,0,.65,1.5,5.26,5.26,0,0,0,1.9.87V7.7a3.33,3.33,0,0,0-1.87.72A2.12,2.12,0,0,0,162,10.06Zm4.32,9.84a3.24,3.24,0,0,0,1.87-.82,2.21,2.21,0,0,0,.68-1.61A1.74,1.74,0,0,0,168.2,16a5,5,0,0,0-1.87-.86Z"/></svg>